HIERARCHY
ROOT root
{
	OFFSET	0	13.1	24.9
	CHANNELS 6  Xposition Yposition Zposition Xrotation Yrotation Zrotation
	JOINT spine_1
	{
		OFFSET	0	9.99999	0
		CHANNELS 3  Xrotation Yrotation Zrotation
		JOINT spine_2
		{
			OFFSET	0	112	-10
			CHANNELS 3  Xrotation Yrotation Zrotation
			JOINT spine_3
			{
				OFFSET	0	206.5	19.3
				CHANNELS 3  Xrotation Yrotation Zrotation
				JOINT spine_4
				{
					OFFSET	0	110.4	14.6
					CHANNELS 3  Xrotation Yrotation Zrotation
					JOINT neck_1
					{
						OFFSET	0	71.8	-50.3
						CHANNELS 3  Xrotation Yrotation Zrotation
						JOINT neck_2
						{
							OFFSET	0	86.2	-25.8
							CHANNELS 3  Xrotation Yrotation Zrotation
							JOINT head_ee
							{
								OFFSET	0	179.8	-8.7
								CHANNELS 3  Xrotation Yrotation Zrotation
								End Site
								{
									OFFSET	1	0	0
								}
							}
						}
					}
					JOINT left_clavicle
					{
						OFFSET	-43.2	22.4	-70.8
						CHANNELS 3  Xrotation Yrotation Zrotation
						JOINT left_shoulder
						{
							OFFSET	-93.9	-5.79999	48.7
							CHANNELS 3  Xrotation Yrotation Zrotation
							JOINT left_elbow
							{
								OFFSET	-291.4	-30.8	15.2
								CHANNELS 3  Xrotation Yrotation Zrotation
								JOINT left_lowarm_twist
								{
									OFFSET	-110.7	-3.89999	13.6
									CHANNELS 3  Xrotation Yrotation Zrotation
									JOINT left_hand
									{
										OFFSET	-110.7	-3.89999	13.6
										CHANNELS 3  Xrotation Yrotation Zrotation
										JOINT left_ee
										{
											OFFSET	-80.8	-5.10001	12.1
											CHANNELS 3  Xrotation Yrotation Zrotation
											End Site
											{
												OFFSET	1	0	0
											}
										}
									}
								}
							}
						}
					}
					JOINT right_clavicle
					{
						OFFSET	43.2	22.4	-70.8
						CHANNELS 3  Xrotation Yrotation Zrotation
						JOINT right_shoulder
						{
							OFFSET	93.9	-5.79999	48.7
							CHANNELS 3  Xrotation Yrotation Zrotation
							JOINT right_elbow
							{
								OFFSET	291.4	-30.8	15.2
								CHANNELS 3  Xrotation Yrotation Zrotation
								JOINT right_lowarm_twist
								{
									OFFSET	110.7	-3.89999	13.6
									CHANNELS 3  Xrotation Yrotation Zrotation
									JOINT right_hand
									{
										OFFSET	110.7	-3.89999	13.6
										CHANNELS 3  Xrotation Yrotation Zrotation
										JOINT right_ee
										{
											OFFSET	80.8	-5.10001	12.1
											CHANNELS 3  Xrotation Yrotation Zrotation
											End Site
											{
												OFFSET	1	0	0
											}
										}
									}
								}
							}
						}
					}
				}
			}
		}
	}
	JOINT left_hip
	{
		OFFSET	-82.8	-127.5	0.300001
		CHANNELS 3  Xrotation Yrotation Zrotation
		JOINT left_knee
		{
			OFFSET	-28.2	-396.7	2.2
			CHANNELS 3  Xrotation Yrotation Zrotation
			JOINT left_ankle
			{
				OFFSET	-11.7	-411.3	35.4
				CHANNELS 3  Xrotation Yrotation Zrotation
				JOINT left_toes
				{
					OFFSET	0	-60	-88.6
					CHANNELS 3  Xrotation Yrotation Zrotation
					JOINT left_foot_ee
					{
						OFFSET	-22.5	-16.5	-42.2
						CHANNELS 3  Xrotation Yrotation Zrotation
						End Site
						{
							OFFSET	1	0	0
						}
					}
				}
			}
		}
	}
	JOINT right_hip
	{
		OFFSET	82.8	-127.5	0.300001
		CHANNELS 3  Xrotation Yrotation Zrotation
		JOINT right_knee
		{
			OFFSET	28.2	-396.7	2.2
			CHANNELS 3  Xrotation Yrotation Zrotation
			JOINT right_ankle
			{
				OFFSET	11.7	-411.3	35.4
				CHANNELS 3  Xrotation Yrotation Zrotation
				JOINT right_toes
				{
					OFFSET	0	-60	-88.6
					CHANNELS 3  Xrotation Yrotation Zrotation
					JOINT right_foot_ee
					{
						OFFSET	22.5	-16.5	-42.2
						CHANNELS 3  Xrotation Yrotation Zrotation
						End Site
						{
							OFFSET	1	0	0
						}
					}
				}
			}
		}
	}
}
MOTION
Frames: 16
Frame Time: 0.02
2593.24438499 749.747 -1528.61189758 137.54576446 78.8237401484 -132.212253611 -0.788384 -0.219507 -2.91365 -0.783662 -0.0337396 -2.9217 -0.778852 0.620456 -2.85531 -0.790192 0.161927 -2.91741 -2.4234 2.71091 7.27124 -2.27369 -0.829517 7.98683 -0.0 0.0 -0.0 3.9693 -7.90021 7.18802 -14.8445 -24.2581 77.4314 0.19103 -5.40598 0.00901881 -14.427 -0.725464 1.69118 -0.216163 8.79736 2.25795 -0.0 0.0 -0.0 0.999499 -6.36073 -2.55816 5.08824 33.7971 -70.2462 1.47557 36.1627 -0.481781 38.8764 0.292115 4.86362 -0.493374 -10.2276 -1.07575 0.0 0.0 0.0 14.2153 0.263146 -14.3193 -54.602 -1.64615 7.90451 26.9896 26.3097 -3.78145 -8.40523 0.0 0.0 -0.0 0.0 -0.0 12.4175 35.9415 -18.9918 -4.01989 -0.144512 -0.599878 28.4103 2.14126 3.75629 -15.0872 0.0 0.0 0.0 0.0 0.0 
2581.6692435 748.0 -1515.33948334 146.907484694 75.8689141998 -142.032804501 -0.73081 -0.330709 -2.79469 -0.726479 -0.152278 -2.81005 -0.716026 0.476739 -2.77353 -0.726759 0.0329096 -2.81398 -2.80188 2.61817 7.01921 -2.66251 -0.75078 7.69297 -0.0 0.0 -0.0 3.82897 -7.74766 6.9105 -16.9412 -24.0472 77.8136 0.196244 -5.55262 0.00951665 -13.7924 -0.684715 1.62091 -0.121665 9.78923 3.27528 -0.0 0.0 -0.0 1.1902 -6.76786 -2.93986 7.48193 33.8648 -70.2906 1.69061 39.9422 -0.614405 38.371 0.267257 4.80396 -0.463605 -9.53906 -0.975752 0.0 0.0 0.0 15.1706 0.0630249 -14.5279 -53.269 -1.51864 7.74346 27.3792 26.0242 -3.82199 -8.38541 0.0 0.0 -0.0 0.0 -0.0 10.6236 36.4943 -18.5453 -2.78479 -0.104601 -0.414533 29.424 2.81294 3.87372 -15.0648 0.0 0.0 0.0 0.0 0.0 
2574.16818318 748.577 -1500.49190411 148.891652154 74.3664972975 -145.738084021 -0.763947 -0.318842 -2.5452 -0.760357 -0.156292 -2.56032 -0.750838 0.418736 -2.53069 -0.759775 0.0139417 -2.56504 -3.37951 2.08016 6.16139 -3.27089 -0.990488 6.69852 -0.0 0.0 -0.0 3.61583 -7.24451 6.50957 -18.6222 -23.5806 78.702 0.206507 -5.84105 0.0105354 -12.9627 -0.632627 1.52839 0.175705 12.7085 6.34483 -0.0 0.0 -0.0 1.23587 -7.89866 -3.12505 8.71206 33.5029 -70.3423 1.93656 43.8058 -0.778668 38.102 0.25424 4.77212 -0.227283 -5.27987 -0.716452 0.0 0.0 0.0 15.6258 -3.37956 -13.3155 -46.3054 -0.915831 6.85737 27.7069 25.5236 -3.84976 -9.301 0.0 0.0 -0.0 0.0 -0.0 8.95238 37.1302 -17.8038 -1.92266 -0.0743762 -0.285675 33.2837 1.7214 4.26496 -14.7594 0.0 0.0 0.0 0.0 0.0 
2562.80489778 744.969 -1494.89927387 153.582132952 72.747836368 -149.485515964 -0.796798 -0.331354 -2.52332 -0.793272 -0.17017 -2.53928 -0.783185 0.401917 -2.51305 -0.791998 0.000116433 -2.54497 -3.5014 1.60393 4.84145 -3.4342 -0.82158 5.25435 -0.0 0.0 -0.0 3.30199 -7.12191 5.87784 -21.0752 -23.688 79.5297 0.202949 -5.74107 0.0101763 -12.7106 -0.617064 1.50013 0.124742 12.9465 6.11569 -0.0 0.0 -0.0 1.21286 -9.43989 -3.22382 12.3692 32.7915 -70.6006 2.5058 51.1367 -1.19903 37.887 0.243948 4.74663 -0.13244 -5.14971 -1.2841 0.0 0.0 0.0 17.4632 -1.85221 -13.3416 -38.0015 -0.344544 5.71646 28.1431 24.8101 -3.88548 -10.9025 0.0 0.0 -0.0 0.0 -0.0 7.10041 36.2397 -16.7535 0.674355 0.0283558 0.0995982 33.3055 3.25579 4.28366 -15.3198 0.0 0.0 0.0 0.0 0.0 
2478.37730963 749.31 -1470.16543789 164.680199287 75.7296658 -159.08698828 0.245102 -0.236705 -3.00938 0.250138 -0.0448201 -3.01833 0.254495 0.577902 -2.96288 0.24226 0.102941 -3.01691 -1.99647 2.05857 4.06634 -1.95168 0.490055 4.54687 -0.0 0.0 -0.0 2.53794 -2.77776 4.6763 -18.993 -23.6437 79.4011 0.420141 -11.7571 0.0432586 -11.3532 -0.535435 1.34682 0.555248 22.8504 12.4126 -0.0 0.0 -0.0 -3.92152 -12.65 5.05605 5.91792 29.7797 -75.1534 3.15236 57.3531 -1.7245 36.9385 0.199677 4.63372 0.672765 -5.44198 -6.69959 0.0 0.0 0.0 6.49307 0.181912 -11.6402 -20.2632 0.292417 3.07961 32.1297 25.0048 -4.34937 -12.2092 0.0 0.0 -0.0 0.0 -0.0 1.62047 37.4246 -15.3347 7.38451 0.373708 1.07031 39.6849 5.17123 4.90696 -17.2839 0.0 0.0 0.0 0.0 0.0 
2465.34258403 750.16 -1485.47245104 162.657495567 79.3728158307 -156.902612082 0.391713 -0.238773 -3.00581 0.396738 -0.0471104 -3.0149 0.401022 0.567373 -2.96146 0.388796 0.0927674 -3.01384 -2.90648 2.66981 4.9713 -2.83978 0.962228 5.55954 -0.0 0.0 -0.0 2.38243 -1.52127 4.47035 -17.5884 -23.7187 78.4013 0.672481 -18.4244 0.109066 -11.1328 -0.522525 1.32175 0.409082 23.7248 11.849 -0.0 0.0 -0.0 -3.95819 -11.9335 5.27186 3.14394 28.982 -74.5268 2.57489 51.8952 -1.2531 36.7054 0.189085 4.60587 0.411028 -6.50771 -5.40321 0.0 0.0 0.0 7.03733 0.15201 -11.6023 -18.799 0.307997 2.8555 32.7267 23.0385 -4.36654 -12.2911 0.0 0.0 -0.0 0.0 -0.0 0.700389 37.1115 -14.8652 7.14749 0.359579 1.03673 39.5994 5.16741 4.89949 -17.4939 0.0 0.0 0.0 0.0 0.0 
2465.35270547 750.16 -1485.75919157 162.579378558 79.4195356621 -156.823137904 0.391713 -0.238773 -3.00581 0.396738 -0.0471104 -3.0149 0.401022 0.567373 -2.96146 0.388796 0.0927674 -3.01384 -2.90648 2.66981 4.9713 -2.83978 0.962228 5.55954 -0.0 0.0 -0.0 2.38243 -1.52127 4.47035 -17.5884 -23.7187 78.4013 0.672481 -18.4244 0.109066 -11.1328 -0.522525 1.32175 0.409082 23.7248 11.849 -0.0 0.0 -0.0 -3.95819 -11.9335 5.27186 3.14394 28.982 -74.5268 2.57489 51.8952 -1.2531 36.7054 0.189085 4.60587 0.411028 -6.50771 -5.40321 0.0 0.0 0.0 7.03733 0.15201 -11.6023 -18.799 0.307997 2.8555 32.7267 23.0385 -4.36654 -12.2911 0.0 0.0 -0.0 0.0 -0.0 0.700389 37.1115 -14.8652 7.14749 0.359579 1.03673 39.5994 5.16741 4.89949 -17.4939 0.0 0.0 0.0 0.0 0.0 
2465.31779358 750.16 -1484.73847845 162.854328362 79.2531432488 -157.102919122 0.391713 -0.238773 -3.00581 0.396738 -0.0471104 -3.0149 0.401022 0.567373 -2.96146 0.388796 0.0927674 -3.01384 -2.90648 2.66981 4.9713 -2.83978 0.962228 5.55954 -0.0 0.0 -0.0 2.38243 -1.52127 4.47035 -17.5884 -23.7187 78.4013 0.672481 -18.4244 0.109066 -11.1328 -0.522525 1.32175 0.409082 23.7248 11.849 -0.0 0.0 -0.0 -3.95819 -11.9335 5.27186 3.14394 28.982 -74.5268 2.57489 51.8952 -1.2531 36.7054 0.189085 4.60587 0.411028 -6.50771 -5.40321 0.0 0.0 0.0 7.03733 0.15201 -11.6023 -18.799 0.307997 2.8555 32.7267 23.0385 -4.36654 -12.2911 0.0 0.0 -0.0 0.0 -0.0 0.700389 37.1115 -14.8652 7.14749 0.359579 1.03673 39.5994 5.16741 4.89949 -17.4939 0.0 0.0 0.0 0.0 0.0 
2465.2569081 750.16 -1482.68261905 163.382800695 78.9173287839 -157.641125219 0.391713 -0.238773 -3.00581 0.396738 -0.0471104 -3.0149 0.401022 0.567373 -2.96146 0.388796 0.0927674 -3.01384 -2.90648 2.66981 4.9713 -2.83978 0.962228 5.55954 -0.0 0.0 -0.0 2.38243 -1.52127 4.47035 -17.5884 -23.7187 78.4013 0.672481 -18.4244 0.109066 -11.1328 -0.522525 1.32175 0.409082 23.7248 11.849 -0.0 0.0 -0.0 -3.95819 -11.9335 5.27186 3.14394 28.982 -74.5268 2.57489 51.8952 -1.2531 36.7054 0.189085 4.60587 0.411028 -6.50771 -5.40321 0.0 0.0 0.0 7.03733 0.15201 -11.6023 -18.799 0.307997 2.8555 32.7267 23.0385 -4.36654 -12.2911 0.0 0.0 -0.0 0.0 -0.0 0.700389 37.1115 -14.8652 7.14749 0.359579 1.03673 39.5994 5.16741 4.89949 -17.4939 0.0 0.0 0.0 0.0 0.0 
2465.29764701 750.16 -1484.1036267 163.0210439 79.1495376567 -157.272640068 0.391713 -0.238773 -3.00581 0.396738 -0.0471104 -3.0149 0.401022 0.567373 -2.96146 0.388796 0.0927674 -3.01384 -2.90648 2.66981 4.9713 -2.83978 0.962228 5.55954 -0.0 0.0 -0.0 2.38243 -1.52127 4.47035 -17.5884 -23.7187 78.4013 0.672481 -18.4244 0.109066 -11.1328 -0.522525 1.32175 0.409082 23.7248 11.849 -0.0 0.0 -0.0 -3.95819 -11.9335 5.27186 3.14394 28.982 -74.5268 2.57489 51.8952 -1.2531 36.7054 0.189085 4.60587 0.411028 -6.50771 -5.40321 0.0 0.0 0.0 7.03733 0.15201 -11.6023 -18.799 0.307997 2.8555 32.7267 23.0385 -4.36654 -12.2911 0.0 0.0 -0.0 0.0 -0.0 0.700389 37.1115 -14.8652 7.14749 0.359579 1.03673 39.5994 5.16741 4.89949 -17.4939 0.0 0.0 0.0 0.0 0.0 
2465.27741419 750.16 -1483.42409002 163.195968501 79.0385453234 -157.450781996 0.391713 -0.238773 -3.00581 0.396738 -0.0471104 -3.0149 0.401022 0.567373 -2.96146 0.388796 0.0927674 -3.01384 -2.90648 2.66981 4.9713 -2.83978 0.962228 5.55954 -0.0 0.0 -0.0 2.38243 -1.52127 4.47035 -17.5884 -23.7187 78.4013 0.672481 -18.4244 0.109066 -11.1328 -0.522525 1.32175 0.409082 23.7248 11.849 -0.0 0.0 -0.0 -3.95819 -11.9335 5.27186 3.14394 28.982 -74.5268 2.57489 51.8952 -1.2531 36.7054 0.189085 4.60587 0.411028 -6.50771 -5.40321 0.0 0.0 0.0 7.03733 0.15201 -11.6023 -18.799 0.307997 2.8555 32.7267 23.0385 -4.36654 -12.2911 0.0 0.0 -0.0 0.0 -0.0 0.700389 37.1115 -14.8652 7.14749 0.359579 1.03673 39.5994 5.16741 4.89949 -17.4939 0.0 0.0 0.0 0.0 0.0 
2468.192238 752.5 -1493.36550741 162.788900207 81.6645834273 -158.252118514 0.451921 -0.231231 -2.95935 0.456792 -0.0425356 -2.96806 0.460665 0.559272 -2.91524 0.448818 0.092057 -2.96693 -4.78226 2.58783 5.15088 -4.70962 0.859011 5.69878 -0.0 0.0 -0.0 2.25061 -0.255223 4.3153 -14.8262 -23.5158 76.6605 0.841262 -22.6231 0.16828 -11.0541 -0.51794 1.31279 0.120072 23.7708 10.1766 -0.0 0.0 -0.0 -3.79307 -10.6384 5.261 1.72691 28.6714 -74.3035 2.26098 48.2337 -1.01229 36.3241 0.172 4.5602 0.264417 -7.82929 -4.97625 0.0 0.0 0.0 7.37946 0.632972 -11.753 -17.5201 0.316915 2.65949 32.2242 22.8571 -4.30737 -12.6299 0.0 0.0 -0.0 0.0 -0.0 1.69581 36.4177 -14.9276 7.00196 0.350973 1.01608 39.4781 5.1506 4.88868 -17.5936 0.0 0.0 0.0 0.0 0.0 
2467.7550064 752.159 -1510.26781415 159.284686369 83.7562609772 -153.511253614 0.47381 -0.246631 -2.93234 0.478592 -0.0596217 -2.94208 0.483289 0.536108 -2.89348 0.471614 0.0726154 -2.94179 -4.58764 2.72522 5.89938 -4.49165 0.522363 6.49119 -0.0 0.0 -0.0 2.10509 1.74459 4.19689 -13.5264 -23.5511 76.0134 1.04315 -27.3267 0.253592 -12.0055 -0.57421 1.42074 -0.148843 23.2308 8.41288 -0.0 0.0 -0.0 -3.5067 -10.181 4.85587 0.849385 27.781 -74.2504 2.01142 44.8916 -0.831001 36.0725 0.160896 4.53001 0.0401683 -9.50546 -4.20051 0.0 0.0 0.0 7.69383 1.02494 -11.5875 -16.6424 0.320503 2.52487 31.9952 22.6158 -4.27677 -12.3704 0.0 0.0 -0.0 0.0 -0.0 2.40552 36.5692 -14.9272 6.32344 0.311544 0.919547 39.673 4.83103 4.90084 -17.7832 0.0 0.0 0.0 0.0 0.0 
2467.20242792 752.159 -1504.81131729 161.93984735 82.8716627845 -156.184509662 0.47381 -0.246631 -2.93234 0.478592 -0.0596217 -2.94208 0.483289 0.536108 -2.89348 0.471614 0.0726154 -2.94179 -4.58764 2.72522 5.89938 -4.49165 0.522363 6.49119 -0.0 0.0 -0.0 2.10509 1.74459 4.19689 -13.5264 -23.5511 76.0134 1.04315 -27.3267 0.253592 -12.0055 -0.57421 1.42074 -0.148843 23.2308 8.41288 -0.0 0.0 -0.0 -3.5067 -10.181 4.85587 0.849385 27.781 -74.2504 2.01142 44.8916 -0.831001 36.0725 0.160896 4.53001 0.0401683 -9.50546 -4.20051 0.0 0.0 0.0 7.69383 1.02494 -11.5875 -16.6424 0.320503 2.52487 31.9952 22.6158 -4.27677 -12.3704 0.0 0.0 -0.0 0.0 -0.0 2.40552 36.5692 -14.9272 6.32344 0.311544 0.919547 39.673 4.83103 4.90084 -17.7832 0.0 0.0 0.0 0.0 0.0 
2463.09974997 753.697 -1508.23117899 161.333276497 84.4216311348 -155.493198902 0.488671 0.0477083 -2.97394 0.49356 0.236767 -2.96489 0.482563 0.831393 -2.85586 0.471373 0.370136 -2.95122 -5.37025 2.56216 6.23425 -5.26174 0.05884 6.78654 -0.0 0.0 -0.0 1.92294 5.05935 4.12155 -11.6784 -23.0415 75.3521 1.30045 -32.7884 0.382616 -11.9684 -0.571981 1.41654 -0.585972 22.7366 5.68041 -0.0 0.0 -0.0 -3.10749 -7.96384 4.58013 0.755428 26.9615 -74.6298 1.61532 38.6632 -0.566709 36.28 0.170047 4.55492 -0.0520682 -9.55167 -3.62553 0.0 0.0 0.0 9.66938 1.1081 -11.5403 -19.8392 0.297518 3.01475 31.8903 25.4192 -4.33346 -12.8217 0.0 0.0 -0.0 0.0 -0.0 2.40705 36.9822 -14.6389 6.47776 0.320411 0.941543 39.3431 5.23494 4.87818 -18.2271 0.0 0.0 0.0 0.0 0.0 
2453.0529205 755.127 -1528.47399001 147.569474139 87.6556368858 -141.970938566 0.480378 -0.268828 -2.79957 0.484734 -0.0902111 -2.811 0.490686 0.47923 -2.77134 0.479971 0.035714 -2.81221 -7.63633 1.77958 5.11715 -7.56239 -0.335779 5.46431 -0.0 0.0 -0.0 1.5843 7.90405 3.74245 -8.76118 -20.0162 75.0417 1.70596 -40.1971 0.624282 -12.5052 -0.604479 1.47705 -1.66358 19.5976 -2.01641 -0.0 0.0 -0.0 -1.73723 -5.28199 2.55259 1.03745 24.7535 -75.154 0.910368 24.2736 -0.195782 35.5148 0.136758 4.46293 -0.222448 -10.9141 -3.09203 0.0 0.0 0.0 11.1409 2.33435 -11.5294 -18.7847 0.308121 2.8533 30.8744 26.5459 -4.24828 -12.4059 0.0 0.0 -0.0 0.0 -0.0 3.18528 37.5554 -14.5376 4.35351 0.203602 0.636767 39.7183 5.41226 4.91358 -18.077 0.0 0.0 0.0 0.0 0.0 
